<svg width="20" height="20" viewBox="0 0 20 20" fill="none" xmlns="http://www.w3.org/2000/svg">
<path d="M7.5 2.5H3.33333C2.8731 2.5 2.5 2.8731 2.5 3.33333V7.5C2.5 7.96024 2.8731 8.33333 3.33333 8.33333H7.5C7.96024 8.33333 8.33333 7.96024 8.33333 7.5V3.33333C8.33333 2.8731 7.96024 2.5 7.5 2.5Z" stroke="black" stroke-width="1.4" stroke-linecap="round" stroke-linejoin="round"/>
<path d="M7.5 11.6666H3.33333C2.8731 11.6666 2.5 12.0397 2.5 12.5V16.6666C2.5 17.1269 2.8731 17.5 3.33333 17.5H7.5C7.96024 17.5 8.33333 17.1269 8.33333 16.6666V12.5C8.33333 12.0397 7.96024 11.6666 7.5 11.6666Z" stroke="black" stroke-width="1.4" stroke-linecap="round" stroke-linejoin="round"/>
<path d="M11.666 3.33337H17.4993" stroke="black" stroke-width="1.4" stroke-linecap="round" stroke-linejoin="round"/>
<path d="M11.666 7.5H17.4993" stroke="black" stroke-width="1.4" stroke-linecap="round" stroke-linejoin="round"/>
<path d="M11.666 12.5H17.4993" stroke="black" stroke-width="1.4" stroke-linecap="round" stroke-linejoin="round"/>
<path d="M11.666 16.6666H17.4993" stroke="black" stroke-width="1.4" stroke-linecap="round" stroke-linejoin="round"/>
</svg>
